<svg width="40" height="40" viewBox="0 0 40 40" fill="none" xmlns="http://www.w3.org/2000/svg"><path fill-rule="evenodd" clip-rule="evenodd" d="M12 0C15.0734 0 17.877 1.15541 20 3.05558C22.123 1.15541 24.9266 0 28 0C34.6274 0 40 5.37258 40 12C40 15.0734 38.8446 17.877 36.9444 20C38.8446 22.123 40 24.9266 40 28C40 34.6274 34.6274 40 28 40C24.9266 40 22.123 38.8446 20 36.9444C17.877 38.8446 15.0734 40 12 40C5.37258 40 0 34.6274 0 28C0 24.9266 1.15541 22.123 3.05558 20C1.15541 17.877 0 15.0734 0 12C0 5.37258 5.37258 0 12 0Z" fill="#a188b9"></path></svg>