<svg xmlns="http://www.w3.org/2000/svg" version="1.1" viewBox="0 0 16 12">
  <path d="M 8 12 L 1 0 L 15 0 z" fill='white'></path>
<line opacity="0" stroke="black" stroke-width="0.0625" x1="1" y1="0" x2="8" y2="4.5"></line>
<line opacity="0.0333333" stroke="black" stroke-width="0.0625" x1="1" y1="0" x2="8" y2="4.75"></line>
<line opacity="0.0666667" stroke="black" stroke-width="0.0625" x1="1" y1="0" x2="8" y2="5"></line>
<line opacity="0.1" stroke="black" stroke-width="0.0625" x1="1" y1="0" x2="8" y2="5.25"></line>
<line opacity="0.133333" stroke="black" stroke-width="0.0625" x1="1" y1="0" x2="8" y2="5.5"></line>
<line opacity="0.166667" stroke="black" stroke-width="0.0625" x1="1" y1="0" x2="8" y2="5.75"></line>
<line opacity="0.2" stroke="black" stroke-width="0.0625" x1="1" y1="0" x2="8" y2="6"></line>
<line opacity="0.233333" stroke="black" stroke-width="0.0625" x1="1" y1="0" x2="8" y2="6.25"></line>
<line opacity="0.266667" stroke="black" stroke-width="0.0625" x1="1" y1="0" x2="8" y2="6.5"></line>
<line opacity="0.3" stroke="black" stroke-width="0.0625" x1="1" y1="0" x2="8" y2="6.75"></line>
<line opacity="0.333333" stroke="black" stroke-width="0.0625" x1="1" y1="0" x2="8" y2="7"></line>
<line opacity="0.366667" stroke="black" stroke-width="0.0625" x1="1" y1="0" x2="8" y2="7.25"></line>
<line opacity="0.4" stroke="black" stroke-width="0.0625" x1="1" y1="0" x2="8" y2="7.5"></line>
<line opacity="0.433333" stroke="black" stroke-width="0.0625" x1="1" y1="0" x2="8" y2="7.75"></line>
<line opacity="0.466667" stroke="black" stroke-width="0.0625" x1="1" y1="0" x2="8" y2="8"></line>
<line opacity="0.5" stroke="black" stroke-width="0.0625" x1="1" y1="0" x2="8" y2="8.25"></line>
<line opacity="0.533333" stroke="black" stroke-width="0.0625" x1="1" y1="0" x2="8" y2="8.5"></line>
<line opacity="0.566667" stroke="black" stroke-width="0.0625" x1="1" y1="0" x2="8" y2="8.75"></line>
<line opacity="0.6" stroke="black" stroke-width="0.0625" x1="1" y1="0" x2="8" y2="9"></line>
<line opacity="0.633333" stroke="black" stroke-width="0.0625" x1="1" y1="0" x2="8" y2="9.25"></line>
<line opacity="0.666667" stroke="black" stroke-width="0.0625" x1="1" y1="0" x2="8" y2="9.5"></line>
<line opacity="0.7" stroke="black" stroke-width="0.0625" x1="1" y1="0" x2="8" y2="9.75"></line>
<line opacity="0.733333" stroke="black" stroke-width="0.0625" x1="1" y1="0" x2="8" y2="10"></line>
<line opacity="0.766667" stroke="black" stroke-width="0.0625" x1="1" y1="0" x2="8" y2="10.25"></line>
<line opacity="0.8" stroke="black" stroke-width="0.0625" x1="1" y1="0" x2="8" y2="10.5"></line>
<line opacity="0.833333" stroke="black" stroke-width="0.0625" x1="1" y1="0" x2="8" y2="10.75"></line>
<line opacity="0.866667" stroke="black" stroke-width="0.0625" x1="1" y1="0" x2="8" y2="11"></line>
<line opacity="0.9" stroke="black" stroke-width="0.0625" x1="1" y1="0" x2="8" y2="11.25"></line>
<line opacity="0.933333" stroke="black" stroke-width="0.0625" x1="1" y1="0" x2="8" y2="11.5"></line>
<line opacity="0.966667" stroke="black" stroke-width="0.0625" x1="1" y1="0" x2="8" y2="11.75"></line>
<line opacity="1" stroke="black" stroke-width="0.0625" x1="1" y1="0" x2="8" y2="12"></line>
<line opacity="0" stroke="black" stroke-width="0.0625" x1="15" y1="0" x2="8" y2="4.5"></line>
<line opacity="0.0333333" stroke="black" stroke-width="0.0625" x1="15" y1="0" x2="8" y2="4.75"></line>
<line opacity="0.0666667" stroke="black" stroke-width="0.0625" x1="15" y1="0" x2="8" y2="5"></line>
<line opacity="0.1" stroke="black" stroke-width="0.0625" x1="15" y1="0" x2="8" y2="5.25"></line>
<line opacity="0.133333" stroke="black" stroke-width="0.0625" x1="15" y1="0" x2="8" y2="5.5"></line>
<line opacity="0.166667" stroke="black" stroke-width="0.0625" x1="15" y1="0" x2="8" y2="5.75"></line>
<line opacity="0.2" stroke="black" stroke-width="0.0625" x1="15" y1="0" x2="8" y2="6"></line>
<line opacity="0.233333" stroke="black" stroke-width="0.0625" x1="15" y1="0" x2="8" y2="6.25"></line>
<line opacity="0.266667" stroke="black" stroke-width="0.0625" x1="15" y1="0" x2="8" y2="6.5"></line>
<line opacity="0.3" stroke="black" stroke-width="0.0625" x1="15" y1="0" x2="8" y2="6.75"></line>
<line opacity="0.333333" stroke="black" stroke-width="0.0625" x1="15" y1="0" x2="8" y2="7"></line>
<line opacity="0.366667" stroke="black" stroke-width="0.0625" x1="15" y1="0" x2="8" y2="7.25"></line>
<line opacity="0.4" stroke="black" stroke-width="0.0625" x1="15" y1="0" x2="8" y2="7.5"></line>
<line opacity="0.433333" stroke="black" stroke-width="0.0625" x1="15" y1="0" x2="8" y2="7.75"></line>
<line opacity="0.466667" stroke="black" stroke-width="0.0625" x1="15" y1="0" x2="8" y2="8"></line>
<line opacity="0.5" stroke="black" stroke-width="0.0625" x1="15" y1="0" x2="8" y2="8.25"></line>
<line opacity="0.533333" stroke="black" stroke-width="0.0625" x1="15" y1="0" x2="8" y2="8.5"></line>
<line opacity="0.566667" stroke="black" stroke-width="0.0625" x1="15" y1="0" x2="8" y2="8.75"></line>
<line opacity="0.6" stroke="black" stroke-width="0.0625" x1="15" y1="0" x2="8" y2="9"></line>
<line opacity="0.633333" stroke="black" stroke-width="0.0625" x1="15" y1="0" x2="8" y2="9.25"></line>
<line opacity="0.666667" stroke="black" stroke-width="0.0625" x1="15" y1="0" x2="8" y2="9.5"></line>
<line opacity="0.7" stroke="black" stroke-width="0.0625" x1="15" y1="0" x2="8" y2="9.75"></line>
<line opacity="0.733333" stroke="black" stroke-width="0.0625" x1="15" y1="0" x2="8" y2="10"></line>
<line opacity="0.766667" stroke="black" stroke-width="0.0625" x1="15" y1="0" x2="8" y2="10.25"></line>
<line opacity="0.8" stroke="black" stroke-width="0.0625" x1="15" y1="0" x2="8" y2="10.5"></line>
<line opacity="0.833333" stroke="black" stroke-width="0.0625" x1="15" y1="0" x2="8" y2="10.75"></line>
<line opacity="0.866667" stroke="black" stroke-width="0.0625" x1="15" y1="0" x2="8" y2="11"></line>
<line opacity="0.9" stroke="black" stroke-width="0.0625" x1="15" y1="0" x2="8" y2="11.25"></line>
<line opacity="0.933333" stroke="black" stroke-width="0.0625" x1="15" y1="0" x2="8" y2="11.5"></line>
<line opacity="0.966667" stroke="black" stroke-width="0.0625" x1="15" y1="0" x2="8" y2="11.75"></line>
<line opacity="1" stroke="black" stroke-width="0.0625" x1="15" y1="0" x2="8" y2="12"></line>
</svg>