<svg xmlns="http://www.w3.org/2000/svg" version="1.1" viewBox="0 0 16 12">
  <path d="M 8 12 L 1 0 L 15 0 z" fill='white'></path>
<line opacity="1" stroke="hsl(0, 95%, 50%)" stroke-width="0.0625" x1="1" y1="0" x2="8" y2="4.5"></line>
<line opacity="1" stroke="hsl(12, 95%, 50%)" stroke-width="0.0625" x1="1" y1="0" x2="8" y2="4.75"></line>
<line opacity="1" stroke="hsl(24, 95%, 50%)" stroke-width="0.0625" x1="1" y1="0" x2="8" y2="5"></line>
<line opacity="1" stroke="hsl(36, 95%, 50%)" stroke-width="0.0625" x1="1" y1="0" x2="8" y2="5.25"></line>
<line opacity="1" stroke="hsl(48, 95%, 50%)" stroke-width="0.0625" x1="1" y1="0" x2="8" y2="5.5"></line>
<line opacity="1" stroke="hsl(60, 95%, 50%)" stroke-width="0.0625" x1="1" y1="0" x2="8" y2="5.75"></line>
<line opacity="1" stroke="hsl(72, 95%, 50%)" stroke-width="0.0625" x1="1" y1="0" x2="8" y2="6"></line>
<line opacity="1" stroke="hsl(84, 95%, 50%)" stroke-width="0.0625" x1="1" y1="0" x2="8" y2="6.25"></line>
<line opacity="1" stroke="hsl(96, 95%, 50%)" stroke-width="0.0625" x1="1" y1="0" x2="8" y2="6.5"></line>
<line opacity="1" stroke="hsl(108, 95%, 50%)" stroke-width="0.0625" x1="1" y1="0" x2="8" y2="6.75"></line>
<line opacity="1" stroke="hsl(120, 95%, 50%)" stroke-width="0.0625" x1="1" y1="0" x2="8" y2="7"></line>
<line opacity="1" stroke="hsl(132, 95%, 50%)" stroke-width="0.0625" x1="1" y1="0" x2="8" y2="7.25"></line>
<line opacity="1" stroke="hsl(144, 95%, 50%)" stroke-width="0.0625" x1="1" y1="0" x2="8" y2="7.5"></line>
<line opacity="1" stroke="hsl(156, 95%, 50%)" stroke-width="0.0625" x1="1" y1="0" x2="8" y2="7.75"></line>
<line opacity="1" stroke="hsl(168, 95%, 50%)" stroke-width="0.0625" x1="1" y1="0" x2="8" y2="8"></line>
<line opacity="1" stroke="hsl(180, 95%, 50%)" stroke-width="0.0625" x1="1" y1="0" x2="8" y2="8.25"></line>
<line opacity="1" stroke="hsl(192, 95%, 50%)" stroke-width="0.0625" x1="1" y1="0" x2="8" y2="8.5"></line>
<line opacity="1" stroke="hsl(204, 95%, 50%)" stroke-width="0.0625" x1="1" y1="0" x2="8" y2="8.75"></line>
<line opacity="1" stroke="hsl(216, 95%, 50%)" stroke-width="0.0625" x1="1" y1="0" x2="8" y2="9"></line>
<line opacity="1" stroke="hsl(228, 95%, 50%)" stroke-width="0.0625" x1="1" y1="0" x2="8" y2="9.25"></line>
<line opacity="1" stroke="hsl(240, 95%, 50%)" stroke-width="0.0625" x1="1" y1="0" x2="8" y2="9.5"></line>
<line opacity="1" stroke="hsl(252, 95%, 50%)" stroke-width="0.0625" x1="1" y1="0" x2="8" y2="9.75"></line>
<line opacity="1" stroke="hsl(264, 95%, 50%)" stroke-width="0.0625" x1="1" y1="0" x2="8" y2="10"></line>
<line opacity="1" stroke="hsl(276, 95%, 50%)" stroke-width="0.0625" x1="1" y1="0" x2="8" y2="10.25"></line>
<line opacity="1" stroke="hsl(288, 95%, 50%)" stroke-width="0.0625" x1="1" y1="0" x2="8" y2="10.5"></line>
<line opacity="1" stroke="hsl(300, 95%, 50%)" stroke-width="0.0625" x1="1" y1="0" x2="8" y2="10.75"></line>
<line opacity="1" stroke="hsl(312, 95%, 50%)" stroke-width="0.0625" x1="1" y1="0" x2="8" y2="11"></line>
<line opacity="1" stroke="hsl(324, 95%, 50%)" stroke-width="0.0625" x1="1" y1="0" x2="8" y2="11.25"></line>
<line opacity="1" stroke="hsl(336, 95%, 50%)" stroke-width="0.0625" x1="1" y1="0" x2="8" y2="11.5"></line>
<line opacity="1" stroke="hsl(348, 95%, 50%)" stroke-width="0.0625" x1="1" y1="0" x2="8" y2="11.75"></line>
<line opacity="1" stroke="hsl(360, 95%, 50%)" stroke-width="0.0625" x1="1" y1="0" x2="8" y2="12"></line>
<line opacity="1" stroke="hsl(0, 95%, 50%)" stroke-width="0.0625" x1="15" y1="0" x2="8" y2="4.5"></line>
<line opacity="1" stroke="hsl(12, 95%, 50%)" stroke-width="0.0625" x1="15" y1="0" x2="8" y2="4.75"></line>
<line opacity="1" stroke="hsl(24, 95%, 50%)" stroke-width="0.0625" x1="15" y1="0" x2="8" y2="5"></line>
<line opacity="1" stroke="hsl(36, 95%, 50%)" stroke-width="0.0625" x1="15" y1="0" x2="8" y2="5.25"></line>
<line opacity="1" stroke="hsl(48, 95%, 50%)" stroke-width="0.0625" x1="15" y1="0" x2="8" y2="5.5"></line>
<line opacity="1" stroke="hsl(60, 95%, 50%)" stroke-width="0.0625" x1="15" y1="0" x2="8" y2="5.75"></line>
<line opacity="1" stroke="hsl(72, 95%, 50%)" stroke-width="0.0625" x1="15" y1="0" x2="8" y2="6"></line>
<line opacity="1" stroke="hsl(84, 95%, 50%)" stroke-width="0.0625" x1="15" y1="0" x2="8" y2="6.25"></line>
<line opacity="1" stroke="hsl(96, 95%, 50%)" stroke-width="0.0625" x1="15" y1="0" x2="8" y2="6.5"></line>
<line opacity="1" stroke="hsl(108, 95%, 50%)" stroke-width="0.0625" x1="15" y1="0" x2="8" y2="6.75"></line>
<line opacity="1" stroke="hsl(120, 95%, 50%)" stroke-width="0.0625" x1="15" y1="0" x2="8" y2="7"></line>
<line opacity="1" stroke="hsl(132, 95%, 50%)" stroke-width="0.0625" x1="15" y1="0" x2="8" y2="7.25"></line>
<line opacity="1" stroke="hsl(144, 95%, 50%)" stroke-width="0.0625" x1="15" y1="0" x2="8" y2="7.5"></line>
<line opacity="1" stroke="hsl(156, 95%, 50%)" stroke-width="0.0625" x1="15" y1="0" x2="8" y2="7.75"></line>
<line opacity="1" stroke="hsl(168, 95%, 50%)" stroke-width="0.0625" x1="15" y1="0" x2="8" y2="8"></line>
<line opacity="1" stroke="hsl(180, 95%, 50%)" stroke-width="0.0625" x1="15" y1="0" x2="8" y2="8.25"></line>
<line opacity="1" stroke="hsl(192, 95%, 50%)" stroke-width="0.0625" x1="15" y1="0" x2="8" y2="8.5"></line>
<line opacity="1" stroke="hsl(204, 95%, 50%)" stroke-width="0.0625" x1="15" y1="0" x2="8" y2="8.75"></line>
<line opacity="1" stroke="hsl(216, 95%, 50%)" stroke-width="0.0625" x1="15" y1="0" x2="8" y2="9"></line>
<line opacity="1" stroke="hsl(228, 95%, 50%)" stroke-width="0.0625" x1="15" y1="0" x2="8" y2="9.25"></line>
<line opacity="1" stroke="hsl(240, 95%, 50%)" stroke-width="0.0625" x1="15" y1="0" x2="8" y2="9.5"></line>
<line opacity="1" stroke="hsl(252, 95%, 50%)" stroke-width="0.0625" x1="15" y1="0" x2="8" y2="9.75"></line>
<line opacity="1" stroke="hsl(264, 95%, 50%)" stroke-width="0.0625" x1="15" y1="0" x2="8" y2="10"></line>
<line opacity="1" stroke="hsl(276, 95%, 50%)" stroke-width="0.0625" x1="15" y1="0" x2="8" y2="10.25"></line>
<line opacity="1" stroke="hsl(288, 95%, 50%)" stroke-width="0.0625" x1="15" y1="0" x2="8" y2="10.5"></line>
<line opacity="1" stroke="hsl(300, 95%, 50%)" stroke-width="0.0625" x1="15" y1="0" x2="8" y2="10.75"></line>
<line opacity="1" stroke="hsl(312, 95%, 50%)" stroke-width="0.0625" x1="15" y1="0" x2="8" y2="11"></line>
<line opacity="1" stroke="hsl(324, 95%, 50%)" stroke-width="0.0625" x1="15" y1="0" x2="8" y2="11.25"></line>
<line opacity="1" stroke="hsl(336, 95%, 50%)" stroke-width="0.0625" x1="15" y1="0" x2="8" y2="11.5"></line>
<line opacity="1" stroke="hsl(348, 95%, 50%)" stroke-width="0.0625" x1="15" y1="0" x2="8" y2="11.75"></line>
<line opacity="1" stroke="hsl(360, 95%, 50%)" stroke-width="0.0625" x1="15" y1="0" x2="8" y2="12"></line>

</svg>