<svg xmlns="http://www.w3.org/2000/svg" version="1.1" viewBox="0 0 16 12">
  <path d="M 8 12 L 1 0 L 15 0 z" fill='white'></path>
<line opacity="1.11022e-16" stroke="hsl(0, 100%, 50%)" stroke-width="0.0625" x1="1" y1="0" x2="8" y2="0"></line>
<line opacity="0.0204082" stroke="hsl(7.5, 100%, 50%)" stroke-width="0.0625" x1="1" y1="0" x2="8" y2="0.25"></line>
<line opacity="0.0408163" stroke="hsl(15, 100%, 50%)" stroke-width="0.0625" x1="1" y1="0" x2="8" y2="0.5"></line>
<line opacity="0.0612245" stroke="hsl(22.5, 100%, 50%)" stroke-width="0.0625" x1="1" y1="0" x2="8" y2="0.75"></line>
<line opacity="0.0816327" stroke="hsl(30, 100%, 50%)" stroke-width="0.0625" x1="1" y1="0" x2="8" y2="1"></line>
<line opacity="0.102041" stroke="hsl(37.5, 100%, 50%)" stroke-width="0.0625" x1="1" y1="0" x2="8" y2="1.25"></line>
<line opacity="0.122449" stroke="hsl(45, 100%, 50%)" stroke-width="0.0625" x1="1" y1="0" x2="8" y2="1.5"></line>
<line opacity="0.142857" stroke="hsl(52.5, 100%, 50%)" stroke-width="0.0625" x1="1" y1="0" x2="8" y2="1.75"></line>
<line opacity="0.163265" stroke="hsl(60, 100%, 50%)" stroke-width="0.0625" x1="1" y1="0" x2="8" y2="2"></line>
<line opacity="0.183673" stroke="hsl(67.5, 100%, 50%)" stroke-width="0.0625" x1="1" y1="0" x2="8" y2="2.25"></line>
<line opacity="0.204082" stroke="hsl(75, 100%, 50%)" stroke-width="0.0625" x1="1" y1="0" x2="8" y2="2.5"></line>
<line opacity="0.22449" stroke="hsl(82.5, 100%, 50%)" stroke-width="0.0625" x1="1" y1="0" x2="8" y2="2.75"></line>
<line opacity="0.244898" stroke="hsl(90, 100%, 50%)" stroke-width="0.0625" x1="1" y1="0" x2="8" y2="3"></line>
<line opacity="0.265306" stroke="hsl(97.5, 100%, 50%)" stroke-width="0.0625" x1="1" y1="0" x2="8" y2="3.25"></line>
<line opacity="0.285714" stroke="hsl(105, 100%, 50%)" stroke-width="0.0625" x1="1" y1="0" x2="8" y2="3.5"></line>
<line opacity="0.306122" stroke="hsl(112.5, 100%, 50%)" stroke-width="0.0625" x1="1" y1="0" x2="8" y2="3.75"></line>
<line opacity="0.326531" stroke="hsl(120, 100%, 50%)" stroke-width="0.0625" x1="1" y1="0" x2="8" y2="4"></line>
<line opacity="0.346939" stroke="hsl(127.5, 100%, 50%)" stroke-width="0.0625" x1="1" y1="0" x2="8" y2="4.25"></line>
<line opacity="0.367347" stroke="hsl(135, 100%, 50%)" stroke-width="0.0625" x1="1" y1="0" x2="8" y2="4.5"></line>
<line opacity="0.387755" stroke="hsl(142.5, 100%, 50%)" stroke-width="0.0625" x1="1" y1="0" x2="8" y2="4.75"></line>
<line opacity="0.408163" stroke="hsl(150, 100%, 50%)" stroke-width="0.0625" x1="1" y1="0" x2="8" y2="5"></line>
<line opacity="0.428571" stroke="hsl(157.5, 100%, 50%)" stroke-width="0.0625" x1="1" y1="0" x2="8" y2="5.25"></line>
<line opacity="0.44898" stroke="hsl(165, 100%, 50%)" stroke-width="0.0625" x1="1" y1="0" x2="8" y2="5.5"></line>
<line opacity="0.469388" stroke="hsl(172.5, 100%, 50%)" stroke-width="0.0625" x1="1" y1="0" x2="8" y2="5.75"></line>
<line opacity="0.489796" stroke="hsl(180, 100%, 50%)" stroke-width="0.0625" x1="1" y1="0" x2="8" y2="6"></line>
<line opacity="0.510204" stroke="hsl(187.5, 100%, 50%)" stroke-width="0.0625" x1="1" y1="0" x2="8" y2="6.25"></line>
<line opacity="0.530612" stroke="hsl(195, 100%, 50%)" stroke-width="0.0625" x1="1" y1="0" x2="8" y2="6.5"></line>
<line opacity="0.55102" stroke="hsl(202.5, 100%, 50%)" stroke-width="0.0625" x1="1" y1="0" x2="8" y2="6.75"></line>
<line opacity="0.571429" stroke="hsl(210, 100%, 50%)" stroke-width="0.0625" x1="1" y1="0" x2="8" y2="7"></line>
<line opacity="0.591837" stroke="hsl(217.5, 100%, 50%)" stroke-width="0.0625" x1="1" y1="0" x2="8" y2="7.25"></line>
<line opacity="0.612245" stroke="hsl(225, 100%, 50%)" stroke-width="0.0625" x1="1" y1="0" x2="8" y2="7.5"></line>
<line opacity="0.632653" stroke="hsl(232.5, 100%, 50%)" stroke-width="0.0625" x1="1" y1="0" x2="8" y2="7.75"></line>
<line opacity="0.653061" stroke="hsl(240, 100%, 50%)" stroke-width="0.0625" x1="1" y1="0" x2="8" y2="8"></line>
<line opacity="0.673469" stroke="hsl(247.5, 100%, 50%)" stroke-width="0.0625" x1="1" y1="0" x2="8" y2="8.25"></line>
<line opacity="0.693878" stroke="hsl(255, 100%, 50%)" stroke-width="0.0625" x1="1" y1="0" x2="8" y2="8.5"></line>
<line opacity="0.714286" stroke="hsl(262.5, 100%, 50%)" stroke-width="0.0625" x1="1" y1="0" x2="8" y2="8.75"></line>
<line opacity="0.734694" stroke="hsl(270, 100%, 50%)" stroke-width="0.0625" x1="1" y1="0" x2="8" y2="9"></line>
<line opacity="0.755102" stroke="hsl(277.5, 100%, 50%)" stroke-width="0.0625" x1="1" y1="0" x2="8" y2="9.25"></line>
<line opacity="0.77551" stroke="hsl(285, 100%, 50%)" stroke-width="0.0625" x1="1" y1="0" x2="8" y2="9.5"></line>
<line opacity="0.795918" stroke="hsl(292.5, 100%, 50%)" stroke-width="0.0625" x1="1" y1="0" x2="8" y2="9.75"></line>
<line opacity="0.816327" stroke="hsl(300, 100%, 50%)" stroke-width="0.0625" x1="1" y1="0" x2="8" y2="10"></line>
<line opacity="0.836735" stroke="hsl(307.5, 100%, 50%)" stroke-width="0.0625" x1="1" y1="0" x2="8" y2="10.25"></line>
<line opacity="0.857143" stroke="hsl(315, 100%, 50%)" stroke-width="0.0625" x1="1" y1="0" x2="8" y2="10.5"></line>
<line opacity="0.877551" stroke="hsl(322.5, 100%, 50%)" stroke-width="0.0625" x1="1" y1="0" x2="8" y2="10.75"></line>
<line opacity="0.897959" stroke="hsl(330, 100%, 50%)" stroke-width="0.0625" x1="1" y1="0" x2="8" y2="11"></line>
<line opacity="0.918367" stroke="hsl(337.5, 100%, 50%)" stroke-width="0.0625" x1="1" y1="0" x2="8" y2="11.25"></line>
<line opacity="0.938776" stroke="hsl(345, 100%, 50%)" stroke-width="0.0625" x1="1" y1="0" x2="8" y2="11.5"></line>
<line opacity="0.959184" stroke="hsl(352.5, 100%, 50%)" stroke-width="0.0625" x1="1" y1="0" x2="8" y2="11.75"></line>
<line opacity="0.979592" stroke="hsl(360, 100%, 50%)" stroke-width="0.0625" x1="1" y1="0" x2="8" y2="12"></line>
<line opacity="1.11022e-16" stroke="hsl(0, 100%, 50%)" stroke-width="0.0625" x1="15" y1="0" x2="8" y2="0"></line>
<line opacity="0.0204082" stroke="hsl(7.5, 100%, 50%)" stroke-width="0.0625" x1="15" y1="0" x2="8" y2="0.25"></line>
<line opacity="0.0408163" stroke="hsl(15, 100%, 50%)" stroke-width="0.0625" x1="15" y1="0" x2="8" y2="0.5"></line>
<line opacity="0.0612245" stroke="hsl(22.5, 100%, 50%)" stroke-width="0.0625" x1="15" y1="0" x2="8" y2="0.75"></line>
<line opacity="0.0816327" stroke="hsl(30, 100%, 50%)" stroke-width="0.0625" x1="15" y1="0" x2="8" y2="1"></line>
<line opacity="0.102041" stroke="hsl(37.5, 100%, 50%)" stroke-width="0.0625" x1="15" y1="0" x2="8" y2="1.25"></line>
<line opacity="0.122449" stroke="hsl(45, 100%, 50%)" stroke-width="0.0625" x1="15" y1="0" x2="8" y2="1.5"></line>
<line opacity="0.142857" stroke="hsl(52.5, 100%, 50%)" stroke-width="0.0625" x1="15" y1="0" x2="8" y2="1.75"></line>
<line opacity="0.163265" stroke="hsl(60, 100%, 50%)" stroke-width="0.0625" x1="15" y1="0" x2="8" y2="2"></line>
<line opacity="0.183673" stroke="hsl(67.5, 100%, 50%)" stroke-width="0.0625" x1="15" y1="0" x2="8" y2="2.25"></line>
<line opacity="0.204082" stroke="hsl(75, 100%, 50%)" stroke-width="0.0625" x1="15" y1="0" x2="8" y2="2.5"></line>
<line opacity="0.22449" stroke="hsl(82.5, 100%, 50%)" stroke-width="0.0625" x1="15" y1="0" x2="8" y2="2.75"></line>
<line opacity="0.244898" stroke="hsl(90, 100%, 50%)" stroke-width="0.0625" x1="15" y1="0" x2="8" y2="3"></line>
<line opacity="0.265306" stroke="hsl(97.5, 100%, 50%)" stroke-width="0.0625" x1="15" y1="0" x2="8" y2="3.25"></line>
<line opacity="0.285714" stroke="hsl(105, 100%, 50%)" stroke-width="0.0625" x1="15" y1="0" x2="8" y2="3.5"></line>
<line opacity="0.306122" stroke="hsl(112.5, 100%, 50%)" stroke-width="0.0625" x1="15" y1="0" x2="8" y2="3.75"></line>
<line opacity="0.326531" stroke="hsl(120, 100%, 50%)" stroke-width="0.0625" x1="15" y1="0" x2="8" y2="4"></line>
<line opacity="0.346939" stroke="hsl(127.5, 100%, 50%)" stroke-width="0.0625" x1="15" y1="0" x2="8" y2="4.25"></line>
<line opacity="0.367347" stroke="hsl(135, 100%, 50%)" stroke-width="0.0625" x1="15" y1="0" x2="8" y2="4.5"></line>
<line opacity="0.387755" stroke="hsl(142.5, 100%, 50%)" stroke-width="0.0625" x1="15" y1="0" x2="8" y2="4.75"></line>
<line opacity="0.408163" stroke="hsl(150, 100%, 50%)" stroke-width="0.0625" x1="15" y1="0" x2="8" y2="5"></line>
<line opacity="0.428571" stroke="hsl(157.5, 100%, 50%)" stroke-width="0.0625" x1="15" y1="0" x2="8" y2="5.25"></line>
<line opacity="0.44898" stroke="hsl(165, 100%, 50%)" stroke-width="0.0625" x1="15" y1="0" x2="8" y2="5.5"></line>
<line opacity="0.469388" stroke="hsl(172.5, 100%, 50%)" stroke-width="0.0625" x1="15" y1="0" x2="8" y2="5.75"></line>
<line opacity="0.489796" stroke="hsl(180, 100%, 50%)" stroke-width="0.0625" x1="15" y1="0" x2="8" y2="6"></line>
<line opacity="0.510204" stroke="hsl(187.5, 100%, 50%)" stroke-width="0.0625" x1="15" y1="0" x2="8" y2="6.25"></line>
<line opacity="0.530612" stroke="hsl(195, 100%, 50%)" stroke-width="0.0625" x1="15" y1="0" x2="8" y2="6.5"></line>
<line opacity="0.55102" stroke="hsl(202.5, 100%, 50%)" stroke-width="0.0625" x1="15" y1="0" x2="8" y2="6.75"></line>
<line opacity="0.571429" stroke="hsl(210, 100%, 50%)" stroke-width="0.0625" x1="15" y1="0" x2="8" y2="7"></line>
<line opacity="0.591837" stroke="hsl(217.5, 100%, 50%)" stroke-width="0.0625" x1="15" y1="0" x2="8" y2="7.25"></line>
<line opacity="0.612245" stroke="hsl(225, 100%, 50%)" stroke-width="0.0625" x1="15" y1="0" x2="8" y2="7.5"></line>
<line opacity="0.632653" stroke="hsl(232.5, 100%, 50%)" stroke-width="0.0625" x1="15" y1="0" x2="8" y2="7.75"></line>
<line opacity="0.653061" stroke="hsl(240, 100%, 50%)" stroke-width="0.0625" x1="15" y1="0" x2="8" y2="8"></line>
<line opacity="0.673469" stroke="hsl(247.5, 100%, 50%)" stroke-width="0.0625" x1="15" y1="0" x2="8" y2="8.25"></line>
<line opacity="0.693878" stroke="hsl(255, 100%, 50%)" stroke-width="0.0625" x1="15" y1="0" x2="8" y2="8.5"></line>
<line opacity="0.714286" stroke="hsl(262.5, 100%, 50%)" stroke-width="0.0625" x1="15" y1="0" x2="8" y2="8.75"></line>
<line opacity="0.734694" stroke="hsl(270, 100%, 50%)" stroke-width="0.0625" x1="15" y1="0" x2="8" y2="9"></line>
<line opacity="0.755102" stroke="hsl(277.5, 100%, 50%)" stroke-width="0.0625" x1="15" y1="0" x2="8" y2="9.25"></line>
<line opacity="0.77551" stroke="hsl(285, 100%, 50%)" stroke-width="0.0625" x1="15" y1="0" x2="8" y2="9.5"></line>
<line opacity="0.795918" stroke="hsl(292.5, 100%, 50%)" stroke-width="0.0625" x1="15" y1="0" x2="8" y2="9.75"></line>
<line opacity="0.816327" stroke="hsl(300, 100%, 50%)" stroke-width="0.0625" x1="15" y1="0" x2="8" y2="10"></line>
<line opacity="0.836735" stroke="hsl(307.5, 100%, 50%)" stroke-width="0.0625" x1="15" y1="0" x2="8" y2="10.25"></line>
<line opacity="0.857143" stroke="hsl(315, 100%, 50%)" stroke-width="0.0625" x1="15" y1="0" x2="8" y2="10.5"></line>
<line opacity="0.877551" stroke="hsl(322.5, 100%, 50%)" stroke-width="0.0625" x1="15" y1="0" x2="8" y2="10.75"></line>
<line opacity="0.897959" stroke="hsl(330, 100%, 50%)" stroke-width="0.0625" x1="15" y1="0" x2="8" y2="11"></line>
<line opacity="0.918367" stroke="hsl(337.5, 100%, 50%)" stroke-width="0.0625" x1="15" y1="0" x2="8" y2="11.25"></line>
<line opacity="0.938776" stroke="hsl(345, 100%, 50%)" stroke-width="0.0625" x1="15" y1="0" x2="8" y2="11.5"></line>
<line opacity="0.959184" stroke="hsl(352.5, 100%, 50%)" stroke-width="0.0625" x1="15" y1="0" x2="8" y2="11.75"></line>
<line opacity="0.979592" stroke="hsl(360, 100%, 50%)" stroke-width="0.0625" x1="15" y1="0" x2="8" y2="12"></line>
</svg>