<svg xmlns="http://www.w3.org/2000/svg" version="1.1" viewBox="0 0 16 12">
  <path d="M 8 12 L 1 0 L 15 0 z" fill='white'></path>
<line opacity="1" stroke="black" stroke-width="0.125" x1="8" y1="12" x2="1" y2="0"></line>
<line opacity="0.964286" stroke="black" stroke-width="0.125" x1="8" y1="12" x2="1.25" y2="0"></line>
<line opacity="0.928571" stroke="black" stroke-width="0.125" x1="8" y1="12" x2="1.5" y2="0"></line>
<line opacity="0.892857" stroke="black" stroke-width="0.125" x1="8" y1="12" x2="1.75" y2="0"></line>
<line opacity="0.857143" stroke="black" stroke-width="0.125" x1="8" y1="12" x2="2" y2="0"></line>
<line opacity="0.821429" stroke="black" stroke-width="0.125" x1="8" y1="12" x2="2.25" y2="0"></line>
<line opacity="0.785714" stroke="black" stroke-width="0.125" x1="8" y1="12" x2="2.5" y2="0"></line>
<line opacity="0.75" stroke="black" stroke-width="0.125" x1="8" y1="12" x2="2.75" y2="0"></line>
<line opacity="0.714286" stroke="black" stroke-width="0.125" x1="8" y1="12" x2="3" y2="0"></line>
<line opacity="0.678571" stroke="black" stroke-width="0.125" x1="8" y1="12" x2="3.25" y2="0"></line>
<line opacity="0.642857" stroke="black" stroke-width="0.125" x1="8" y1="12" x2="3.5" y2="0"></line>
<line opacity="0.607143" stroke="black" stroke-width="0.125" x1="8" y1="12" x2="3.75" y2="0"></line>
<line opacity="0.571429" stroke="black" stroke-width="0.125" x1="8" y1="12" x2="4" y2="0"></line>
<line opacity="0.535714" stroke="black" stroke-width="0.125" x1="8" y1="12" x2="4.25" y2="0"></line>
<line opacity="0.5" stroke="black" stroke-width="0.125" x1="8" y1="12" x2="4.5" y2="0"></line>
<line opacity="0.464286" stroke="black" stroke-width="0.125" x1="8" y1="12" x2="4.75" y2="0"></line>
<line opacity="0.428571" stroke="black" stroke-width="0.125" x1="8" y1="12" x2="5" y2="0"></line>
<line opacity="0.392857" stroke="black" stroke-width="0.125" x1="8" y1="12" x2="5.25" y2="0"></line>
<line opacity="0.357143" stroke="black" stroke-width="0.125" x1="8" y1="12" x2="5.5" y2="0"></line>
<line opacity="0.321429" stroke="black" stroke-width="0.125" x1="8" y1="12" x2="5.75" y2="0"></line>
<line opacity="0.285714" stroke="black" stroke-width="0.125" x1="8" y1="12" x2="6" y2="0"></line>
<line opacity="0.25" stroke="black" stroke-width="0.125" x1="8" y1="12" x2="6.25" y2="0"></line>
<line opacity="0.214286" stroke="black" stroke-width="0.125" x1="8" y1="12" x2="6.5" y2="0"></line>
<line opacity="0.178571" stroke="black" stroke-width="0.125" x1="8" y1="12" x2="6.75" y2="0"></line>
<line opacity="0.142857" stroke="black" stroke-width="0.125" x1="8" y1="12" x2="7" y2="0"></line>
<line opacity="0.107143" stroke="black" stroke-width="0.125" x1="8" y1="12" x2="7.25" y2="0"></line>
<line opacity="0.0714286" stroke="black" stroke-width="0.125" x1="8" y1="12" x2="7.5" y2="0"></line>
<line opacity="0.0357143" stroke="black" stroke-width="0.125" x1="8" y1="12" x2="7.75" y2="0"></line>
<line opacity="1" stroke="black" stroke-width="0.125" x1="8" y1="12" x2="15" y2="0"></line>
<line opacity="0.964286" stroke="black" stroke-width="0.125" x1="8" y1="12" x2="14.75" y2="0"></line>
<line opacity="0.928571" stroke="black" stroke-width="0.125" x1="8" y1="12" x2="14.5" y2="0"></line>
<line opacity="0.892857" stroke="black" stroke-width="0.125" x1="8" y1="12" x2="14.25" y2="0"></line>
<line opacity="0.857143" stroke="black" stroke-width="0.125" x1="8" y1="12" x2="14" y2="0"></line>
<line opacity="0.821429" stroke="black" stroke-width="0.125" x1="8" y1="12" x2="13.75" y2="0"></line>
<line opacity="0.785714" stroke="black" stroke-width="0.125" x1="8" y1="12" x2="13.5" y2="0"></line>
<line opacity="0.75" stroke="black" stroke-width="0.125" x1="8" y1="12" x2="13.25" y2="0"></line>
<line opacity="0.714286" stroke="black" stroke-width="0.125" x1="8" y1="12" x2="13" y2="0"></line>
<line opacity="0.678571" stroke="black" stroke-width="0.125" x1="8" y1="12" x2="12.75" y2="0"></line>
<line opacity="0.642857" stroke="black" stroke-width="0.125" x1="8" y1="12" x2="12.5" y2="0"></line>
<line opacity="0.607143" stroke="black" stroke-width="0.125" x1="8" y1="12" x2="12.25" y2="0"></line>
<line opacity="0.571429" stroke="black" stroke-width="0.125" x1="8" y1="12" x2="12" y2="0"></line>
<line opacity="0.535714" stroke="black" stroke-width="0.125" x1="8" y1="12" x2="11.75" y2="0"></line>
<line opacity="0.5" stroke="black" stroke-width="0.125" x1="8" y1="12" x2="11.5" y2="0"></line>
<line opacity="0.464286" stroke="black" stroke-width="0.125" x1="8" y1="12" x2="11.25" y2="0"></line>
<line opacity="0.428571" stroke="black" stroke-width="0.125" x1="8" y1="12" x2="11" y2="0"></line>
<line opacity="0.392857" stroke="black" stroke-width="0.125" x1="8" y1="12" x2="10.75" y2="0"></line>
<line opacity="0.357143" stroke="black" stroke-width="0.125" x1="8" y1="12" x2="10.5" y2="0"></line>
<line opacity="0.321429" stroke="black" stroke-width="0.125" x1="8" y1="12" x2="10.25" y2="0"></line>
<line opacity="0.285714" stroke="black" stroke-width="0.125" x1="8" y1="12" x2="10" y2="0"></line>
<line opacity="0.25" stroke="black" stroke-width="0.125" x1="8" y1="12" x2="9.75" y2="0"></line>
<line opacity="0.214286" stroke="black" stroke-width="0.125" x1="8" y1="12" x2="9.5" y2="0"></line>
<line opacity="0.178571" stroke="black" stroke-width="0.125" x1="8" y1="12" x2="9.25" y2="0"></line>
<line opacity="0.142857" stroke="black" stroke-width="0.125" x1="8" y1="12" x2="9" y2="0"></line>
<line opacity="0.107143" stroke="black" stroke-width="0.125" x1="8" y1="12" x2="8.75" y2="0"></line>
<line opacity="0.0714286" stroke="black" stroke-width="0.125" x1="8" y1="12" x2="8.5" y2="0"></line>
<line opacity="0.0357143" stroke="black" stroke-width="0.125" x1="8" y1="12" x2="8.25" y2="0"></line>
<line opacity="0" stroke="black" stroke-width="0.125" x1="8" y1="12" x2="8" y2="0"></line>

</svg>