<svg xmlns="http://www.w3.org/2000/svg" version="1.1" viewBox="0 0 16 12">
  <path d="M 8 12 L 1 0 L 15 0 z" fill='white'></path>
  <line opacity="0" stroke="black" stroke-width="0.0625" x1="1" y1="0" x2="8" y2="4.6"></line>
<line opacity="0.027027" stroke="black" stroke-width="0.0625" x1="1" y1="0" x2="8" y2="4.8"></line>
<line opacity="0.0540541" stroke="black" stroke-width="0.0625" x1="1" y1="0" x2="8" y2="5"></line>
<line opacity="0.0810811" stroke="black" stroke-width="0.0625" x1="1" y1="0" x2="8" y2="5.2"></line>
<line opacity="0.108108" stroke="black" stroke-width="0.0625" x1="1" y1="0" x2="8" y2="5.4"></line>
<line opacity="0.135135" stroke="black" stroke-width="0.0625" x1="1" y1="0" x2="8" y2="5.6"></line>
<line opacity="0.162162" stroke="black" stroke-width="0.0625" x1="1" y1="0" x2="8" y2="5.8"></line>
<line opacity="0.189189" stroke="black" stroke-width="0.0625" x1="1" y1="0" x2="8" y2="6"></line>
<line opacity="0.216216" stroke="black" stroke-width="0.0625" x1="1" y1="0" x2="8" y2="6.2"></line>
<line opacity="0.243243" stroke="black" stroke-width="0.0625" x1="1" y1="0" x2="8" y2="6.4"></line>
<line opacity="0.27027" stroke="black" stroke-width="0.0625" x1="1" y1="0" x2="8" y2="6.6"></line>
<line opacity="0.297297" stroke="black" stroke-width="0.0625" x1="1" y1="0" x2="8" y2="6.8"></line>
<line opacity="0.324324" stroke="black" stroke-width="0.0625" x1="1" y1="0" x2="8" y2="7"></line>
<line opacity="0.351351" stroke="black" stroke-width="0.0625" x1="1" y1="0" x2="8" y2="7.2"></line>
<line opacity="0.378378" stroke="black" stroke-width="0.0625" x1="1" y1="0" x2="8" y2="7.4"></line>
<line opacity="0.405405" stroke="black" stroke-width="0.0625" x1="1" y1="0" x2="8" y2="7.6"></line>
<line opacity="0.432432" stroke="black" stroke-width="0.0625" x1="1" y1="0" x2="8" y2="7.8"></line>
<line opacity="0.459459" stroke="black" stroke-width="0.0625" x1="1" y1="0" x2="8" y2="8"></line>
<line opacity="0.486486" stroke="black" stroke-width="0.0625" x1="1" y1="0" x2="8" y2="8.2"></line>
<line opacity="0.513514" stroke="black" stroke-width="0.0625" x1="1" y1="0" x2="8" y2="8.4"></line>
<line opacity="0.540541" stroke="black" stroke-width="0.0625" x1="1" y1="0" x2="8" y2="8.6"></line>
<line opacity="0.567568" stroke="black" stroke-width="0.0625" x1="1" y1="0" x2="8" y2="8.8"></line>
<line opacity="0.594595" stroke="black" stroke-width="0.0625" x1="1" y1="0" x2="8" y2="9"></line>
<line opacity="0.621622" stroke="black" stroke-width="0.0625" x1="1" y1="0" x2="8" y2="9.2"></line>
<line opacity="0.648649" stroke="black" stroke-width="0.0625" x1="1" y1="0" x2="8" y2="9.4"></line>
<line opacity="0.675676" stroke="black" stroke-width="0.0625" x1="1" y1="0" x2="8" y2="9.6"></line>
<line opacity="0.702703" stroke="black" stroke-width="0.0625" x1="1" y1="0" x2="8" y2="9.8"></line>
<line opacity="0.72973" stroke="black" stroke-width="0.0625" x1="1" y1="0" x2="8" y2="10"></line>
<line opacity="0.756757" stroke="black" stroke-width="0.0625" x1="1" y1="0" x2="8" y2="10.2"></line>
<line opacity="0.783784" stroke="black" stroke-width="0.0625" x1="1" y1="0" x2="8" y2="10.4"></line>
<line opacity="0.810811" stroke="black" stroke-width="0.0625" x1="1" y1="0" x2="8" y2="10.6"></line>
<line opacity="0.837838" stroke="black" stroke-width="0.0625" x1="1" y1="0" x2="8" y2="10.8"></line>
<line opacity="0.864865" stroke="black" stroke-width="0.0625" x1="1" y1="0" x2="8" y2="11"></line>
<line opacity="0.891892" stroke="black" stroke-width="0.0625" x1="1" y1="0" x2="8" y2="11.2"></line>
<line opacity="0.918919" stroke="black" stroke-width="0.0625" x1="1" y1="0" x2="8" y2="11.4"></line>
<line opacity="0.945946" stroke="black" stroke-width="0.0625" x1="1" y1="0" x2="8" y2="11.6"></line>
<line opacity="0.972973" stroke="black" stroke-width="0.0625" x1="1" y1="0" x2="8" y2="11.8"></line>
<line opacity="1" stroke="black" stroke-width="0.0625" x1="1" y1="0" x2="8" y2="12"></line>
<line opacity="0" stroke="black" stroke-width="0.0625" x1="15" y1="0" x2="8" y2="4.6"></line>
<line opacity="0.027027" stroke="black" stroke-width="0.0625" x1="15" y1="0" x2="8" y2="4.8"></line>
<line opacity="0.0540541" stroke="black" stroke-width="0.0625" x1="15" y1="0" x2="8" y2="5"></line>
<line opacity="0.0810811" stroke="black" stroke-width="0.0625" x1="15" y1="0" x2="8" y2="5.2"></line>
<line opacity="0.108108" stroke="black" stroke-width="0.0625" x1="15" y1="0" x2="8" y2="5.4"></line>
<line opacity="0.135135" stroke="black" stroke-width="0.0625" x1="15" y1="0" x2="8" y2="5.6"></line>
<line opacity="0.162162" stroke="black" stroke-width="0.0625" x1="15" y1="0" x2="8" y2="5.8"></line>
<line opacity="0.189189" stroke="black" stroke-width="0.0625" x1="15" y1="0" x2="8" y2="6"></line>
<line opacity="0.216216" stroke="black" stroke-width="0.0625" x1="15" y1="0" x2="8" y2="6.2"></line>
<line opacity="0.243243" stroke="black" stroke-width="0.0625" x1="15" y1="0" x2="8" y2="6.4"></line>
<line opacity="0.27027" stroke="black" stroke-width="0.0625" x1="15" y1="0" x2="8" y2="6.6"></line>
<line opacity="0.297297" stroke="black" stroke-width="0.0625" x1="15" y1="0" x2="8" y2="6.8"></line>
<line opacity="0.324324" stroke="black" stroke-width="0.0625" x1="15" y1="0" x2="8" y2="7"></line>
<line opacity="0.351351" stroke="black" stroke-width="0.0625" x1="15" y1="0" x2="8" y2="7.2"></line>
<line opacity="0.378378" stroke="black" stroke-width="0.0625" x1="15" y1="0" x2="8" y2="7.4"></line>
<line opacity="0.405405" stroke="black" stroke-width="0.0625" x1="15" y1="0" x2="8" y2="7.6"></line>
<line opacity="0.432432" stroke="black" stroke-width="0.0625" x1="15" y1="0" x2="8" y2="7.8"></line>
<line opacity="0.459459" stroke="black" stroke-width="0.0625" x1="15" y1="0" x2="8" y2="8"></line>
<line opacity="0.486486" stroke="black" stroke-width="0.0625" x1="15" y1="0" x2="8" y2="8.2"></line>
<line opacity="0.513514" stroke="black" stroke-width="0.0625" x1="15" y1="0" x2="8" y2="8.4"></line>
<line opacity="0.540541" stroke="black" stroke-width="0.0625" x1="15" y1="0" x2="8" y2="8.6"></line>
<line opacity="0.567568" stroke="black" stroke-width="0.0625" x1="15" y1="0" x2="8" y2="8.8"></line>
<line opacity="0.594595" stroke="black" stroke-width="0.0625" x1="15" y1="0" x2="8" y2="9"></line>
<line opacity="0.621622" stroke="black" stroke-width="0.0625" x1="15" y1="0" x2="8" y2="9.2"></line>
<line opacity="0.648649" stroke="black" stroke-width="0.0625" x1="15" y1="0" x2="8" y2="9.4"></line>
<line opacity="0.675676" stroke="black" stroke-width="0.0625" x1="15" y1="0" x2="8" y2="9.6"></line>
<line opacity="0.702703" stroke="black" stroke-width="0.0625" x1="15" y1="0" x2="8" y2="9.8"></line>
<line opacity="0.72973" stroke="black" stroke-width="0.0625" x1="15" y1="0" x2="8" y2="10"></line>
<line opacity="0.756757" stroke="black" stroke-width="0.0625" x1="15" y1="0" x2="8" y2="10.2"></line>
<line opacity="0.783784" stroke="black" stroke-width="0.0625" x1="15" y1="0" x2="8" y2="10.4"></line>
<line opacity="0.810811" stroke="black" stroke-width="0.0625" x1="15" y1="0" x2="8" y2="10.6"></line>
<line opacity="0.837838" stroke="black" stroke-width="0.0625" x1="15" y1="0" x2="8" y2="10.8"></line>
<line opacity="0.864865" stroke="black" stroke-width="0.0625" x1="15" y1="0" x2="8" y2="11"></line>
<line opacity="0.891892" stroke="black" stroke-width="0.0625" x1="15" y1="0" x2="8" y2="11.2"></line>
<line opacity="0.918919" stroke="black" stroke-width="0.0625" x1="15" y1="0" x2="8" y2="11.4"></line>
<line opacity="0.945946" stroke="black" stroke-width="0.0625" x1="15" y1="0" x2="8" y2="11.6"></line>
<line opacity="0.972973" stroke="black" stroke-width="0.0625" x1="15" y1="0" x2="8" y2="11.8"></line>
<line opacity="1" stroke="black" stroke-width="0.0625" x1="15" y1="0" x2="8" y2="12"></line>
</svg>