<svg xmlns="http://www.w3.org/2000/svg" version="1.1" viewBox="0 0 16 12">
  <path d="M 8 12 L 1 0 L 15 0 z" fill='transparent'></path>
<line opacity="0.5" stroke="hsl(0, 100%, 50%)" stroke-width="0.0625" x1="1" y1="0" x2="8" y2="0"></line>
<line opacity="0.510417" stroke="hsl(7.5, 100%, 50%)" stroke-width="0.0625" x1="1" y1="0" x2="8" y2="0.25"></line>
<line opacity="0.520833" stroke="hsl(15, 100%, 50%)" stroke-width="0.0625" x1="1" y1="0" x2="8" y2="0.5"></line>
<line opacity="0.53125" stroke="hsl(22.5, 100%, 50%)" stroke-width="0.0625" x1="1" y1="0" x2="8" y2="0.75"></line>
<line opacity="0.541667" stroke="hsl(30, 100%, 50%)" stroke-width="0.0625" x1="1" y1="0" x2="8" y2="1"></line>
<line opacity="0.552083" stroke="hsl(37.5, 100%, 50%)" stroke-width="0.0625" x1="1" y1="0" x2="8" y2="1.25"></line>
<line opacity="0.5625" stroke="hsl(45, 100%, 50%)" stroke-width="0.0625" x1="1" y1="0" x2="8" y2="1.5"></line>
<line opacity="0.572917" stroke="hsl(52.5, 100%, 50%)" stroke-width="0.0625" x1="1" y1="0" x2="8" y2="1.75"></line>
<line opacity="0.583333" stroke="hsl(60, 100%, 50%)" stroke-width="0.0625" x1="1" y1="0" x2="8" y2="2"></line>
<line opacity="0.59375" stroke="hsl(67.5, 100%, 50%)" stroke-width="0.0625" x1="1" y1="0" x2="8" y2="2.25"></line>
<line opacity="0.604167" stroke="hsl(75, 100%, 50%)" stroke-width="0.0625" x1="1" y1="0" x2="8" y2="2.5"></line>
<line opacity="0.614583" stroke="hsl(82.5, 100%, 50%)" stroke-width="0.0625" x1="1" y1="0" x2="8" y2="2.75"></line>
<line opacity="0.625" stroke="hsl(90, 100%, 50%)" stroke-width="0.0625" x1="1" y1="0" x2="8" y2="3"></line>
<line opacity="0.635417" stroke="hsl(97.5, 100%, 50%)" stroke-width="0.0625" x1="1" y1="0" x2="8" y2="3.25"></line>
<line opacity="0.645833" stroke="hsl(105, 100%, 50%)" stroke-width="0.0625" x1="1" y1="0" x2="8" y2="3.5"></line>
<line opacity="0.65625" stroke="hsl(112.5, 100%, 50%)" stroke-width="0.0625" x1="1" y1="0" x2="8" y2="3.75"></line>
<line opacity="0.666667" stroke="hsl(120, 100%, 50%)" stroke-width="0.0625" x1="1" y1="0" x2="8" y2="4"></line>
<line opacity="0.677083" stroke="hsl(127.5, 100%, 50%)" stroke-width="0.0625" x1="1" y1="0" x2="8" y2="4.25"></line>
<line opacity="0.6875" stroke="hsl(135, 100%, 50%)" stroke-width="0.0625" x1="1" y1="0" x2="8" y2="4.5"></line>
<line opacity="0.697917" stroke="hsl(142.5, 100%, 50%)" stroke-width="0.0625" x1="1" y1="0" x2="8" y2="4.75"></line>
<line opacity="0.708333" stroke="hsl(150, 100%, 50%)" stroke-width="0.0625" x1="1" y1="0" x2="8" y2="5"></line>
<line opacity="0.71875" stroke="hsl(157.5, 100%, 50%)" stroke-width="0.0625" x1="1" y1="0" x2="8" y2="5.25"></line>
<line opacity="0.729167" stroke="hsl(165, 100%, 50%)" stroke-width="0.0625" x1="1" y1="0" x2="8" y2="5.5"></line>
<line opacity="0.739583" stroke="hsl(172.5, 100%, 50%)" stroke-width="0.0625" x1="1" y1="0" x2="8" y2="5.75"></line>
<line opacity="0.75" stroke="hsl(180, 100%, 50%)" stroke-width="0.0625" x1="1" y1="0" x2="8" y2="6"></line>
<line opacity="0.760417" stroke="hsl(187.5, 100%, 50%)" stroke-width="0.0625" x1="1" y1="0" x2="8" y2="6.25"></line>
<line opacity="0.770833" stroke="hsl(195, 100%, 50%)" stroke-width="0.0625" x1="1" y1="0" x2="8" y2="6.5"></line>
<line opacity="0.78125" stroke="hsl(202.5, 100%, 50%)" stroke-width="0.0625" x1="1" y1="0" x2="8" y2="6.75"></line>
<line opacity="0.791667" stroke="hsl(210, 100%, 50%)" stroke-width="0.0625" x1="1" y1="0" x2="8" y2="7"></line>
<line opacity="0.802083" stroke="hsl(217.5, 100%, 50%)" stroke-width="0.0625" x1="1" y1="0" x2="8" y2="7.25"></line>
<line opacity="0.8125" stroke="hsl(225, 100%, 50%)" stroke-width="0.0625" x1="1" y1="0" x2="8" y2="7.5"></line>
<line opacity="0.822917" stroke="hsl(232.5, 100%, 50%)" stroke-width="0.0625" x1="1" y1="0" x2="8" y2="7.75"></line>
<line opacity="0.833333" stroke="hsl(240, 100%, 50%)" stroke-width="0.0625" x1="1" y1="0" x2="8" y2="8"></line>
<line opacity="0.84375" stroke="hsl(247.5, 100%, 50%)" stroke-width="0.0625" x1="1" y1="0" x2="8" y2="8.25"></line>
<line opacity="0.854167" stroke="hsl(255, 100%, 50%)" stroke-width="0.0625" x1="1" y1="0" x2="8" y2="8.5"></line>
<line opacity="0.864583" stroke="hsl(262.5, 100%, 50%)" stroke-width="0.0625" x1="1" y1="0" x2="8" y2="8.75"></line>
<line opacity="0.875" stroke="hsl(270, 100%, 50%)" stroke-width="0.0625" x1="1" y1="0" x2="8" y2="9"></line>
<line opacity="0.885417" stroke="hsl(277.5, 100%, 50%)" stroke-width="0.0625" x1="1" y1="0" x2="8" y2="9.25"></line>
<line opacity="0.895833" stroke="hsl(285, 100%, 50%)" stroke-width="0.0625" x1="1" y1="0" x2="8" y2="9.5"></line>
<line opacity="0.90625" stroke="hsl(292.5, 100%, 50%)" stroke-width="0.0625" x1="1" y1="0" x2="8" y2="9.75"></line>
<line opacity="0.916667" stroke="hsl(300, 100%, 50%)" stroke-width="0.0625" x1="1" y1="0" x2="8" y2="10"></line>
<line opacity="0.927083" stroke="hsl(307.5, 100%, 50%)" stroke-width="0.0625" x1="1" y1="0" x2="8" y2="10.25"></line>
<line opacity="0.9375" stroke="hsl(315, 100%, 50%)" stroke-width="0.0625" x1="1" y1="0" x2="8" y2="10.5"></line>
<line opacity="0.947917" stroke="hsl(322.5, 100%, 50%)" stroke-width="0.0625" x1="1" y1="0" x2="8" y2="10.75"></line>
<line opacity="0.958333" stroke="hsl(330, 100%, 50%)" stroke-width="0.0625" x1="1" y1="0" x2="8" y2="11"></line>
<line opacity="0.96875" stroke="hsl(337.5, 100%, 50%)" stroke-width="0.0625" x1="1" y1="0" x2="8" y2="11.25"></line>
<line opacity="0.979167" stroke="hsl(345, 100%, 50%)" stroke-width="0.0625" x1="1" y1="0" x2="8" y2="11.5"></line>
<line opacity="0.989583" stroke="hsl(352.5, 100%, 50%)" stroke-width="0.0625" x1="1" y1="0" x2="8" y2="11.75"></line>
<line opacity="1" stroke="hsl(360, 100%, 50%)" stroke-width="0.0625" x1="1" y1="0" x2="8" y2="12"></line>
<line opacity="0.5" stroke="hsl(180, 100%, 50%)" stroke-width="0.0625" x1="15" y1="0" x2="8" y2="0"></line>
<line opacity="0.510417" stroke="hsl(172.5, 100%, 50%)" stroke-width="0.0625" x1="15" y1="0" x2="8" y2="0.25"></line>
<line opacity="0.520833" stroke="hsl(165, 100%, 50%)" stroke-width="0.0625" x1="15" y1="0" x2="8" y2="0.5"></line>
<line opacity="0.53125" stroke="hsl(157.5, 100%, 50%)" stroke-width="0.0625" x1="15" y1="0" x2="8" y2="0.75"></line>
<line opacity="0.541667" stroke="hsl(150, 100%, 50%)" stroke-width="0.0625" x1="15" y1="0" x2="8" y2="1"></line>
<line opacity="0.552083" stroke="hsl(142.5, 100%, 50%)" stroke-width="0.0625" x1="15" y1="0" x2="8" y2="1.25"></line>
<line opacity="0.5625" stroke="hsl(135, 100%, 50%)" stroke-width="0.0625" x1="15" y1="0" x2="8" y2="1.5"></line>
<line opacity="0.572917" stroke="hsl(127.5, 100%, 50%)" stroke-width="0.0625" x1="15" y1="0" x2="8" y2="1.75"></line>
<line opacity="0.583333" stroke="hsl(120, 100%, 50%)" stroke-width="0.0625" x1="15" y1="0" x2="8" y2="2"></line>
<line opacity="0.59375" stroke="hsl(112.5, 100%, 50%)" stroke-width="0.0625" x1="15" y1="0" x2="8" y2="2.25"></line>
<line opacity="0.604167" stroke="hsl(105, 100%, 50%)" stroke-width="0.0625" x1="15" y1="0" x2="8" y2="2.5"></line>
<line opacity="0.614583" stroke="hsl(97.5, 100%, 50%)" stroke-width="0.0625" x1="15" y1="0" x2="8" y2="2.75"></line>
<line opacity="0.625" stroke="hsl(90, 100%, 50%)" stroke-width="0.0625" x1="15" y1="0" x2="8" y2="3"></line>
<line opacity="0.635417" stroke="hsl(82.5, 100%, 50%)" stroke-width="0.0625" x1="15" y1="0" x2="8" y2="3.25"></line>
<line opacity="0.645833" stroke="hsl(75, 100%, 50%)" stroke-width="0.0625" x1="15" y1="0" x2="8" y2="3.5"></line>
<line opacity="0.65625" stroke="hsl(67.5, 100%, 50%)" stroke-width="0.0625" x1="15" y1="0" x2="8" y2="3.75"></line>
<line opacity="0.666667" stroke="hsl(60, 100%, 50%)" stroke-width="0.0625" x1="15" y1="0" x2="8" y2="4"></line>
<line opacity="0.677083" stroke="hsl(52.5, 100%, 50%)" stroke-width="0.0625" x1="15" y1="0" x2="8" y2="4.25"></line>
<line opacity="0.6875" stroke="hsl(45, 100%, 50%)" stroke-width="0.0625" x1="15" y1="0" x2="8" y2="4.5"></line>
<line opacity="0.697917" stroke="hsl(37.5, 100%, 50%)" stroke-width="0.0625" x1="15" y1="0" x2="8" y2="4.75"></line>
<line opacity="0.708333" stroke="hsl(30, 100%, 50%)" stroke-width="0.0625" x1="15" y1="0" x2="8" y2="5"></line>
<line opacity="0.71875" stroke="hsl(22.5, 100%, 50%)" stroke-width="0.0625" x1="15" y1="0" x2="8" y2="5.25"></line>
<line opacity="0.729167" stroke="hsl(15, 100%, 50%)" stroke-width="0.0625" x1="15" y1="0" x2="8" y2="5.5"></line>
<line opacity="0.739583" stroke="hsl(7.5, 100%, 50%)" stroke-width="0.0625" x1="15" y1="0" x2="8" y2="5.75"></line>
<line opacity="0.75" stroke="hsl(0, 100%, 50%)" stroke-width="0.0625" x1="15" y1="0" x2="8" y2="6"></line>
<line opacity="0.760417" stroke="hsl(-7.5, 100%, 50%)" stroke-width="0.0625" x1="15" y1="0" x2="8" y2="6.25"></line>
<line opacity="0.770833" stroke="hsl(-15, 100%, 50%)" stroke-width="0.0625" x1="15" y1="0" x2="8" y2="6.5"></line>
<line opacity="0.78125" stroke="hsl(-22.5, 100%, 50%)" stroke-width="0.0625" x1="15" y1="0" x2="8" y2="6.75"></line>
<line opacity="0.791667" stroke="hsl(-30, 100%, 50%)" stroke-width="0.0625" x1="15" y1="0" x2="8" y2="7"></line>
<line opacity="0.802083" stroke="hsl(-37.5, 100%, 50%)" stroke-width="0.0625" x1="15" y1="0" x2="8" y2="7.25"></line>
<line opacity="0.8125" stroke="hsl(-45, 100%, 50%)" stroke-width="0.0625" x1="15" y1="0" x2="8" y2="7.5"></line>
<line opacity="0.822917" stroke="hsl(-52.5, 100%, 50%)" stroke-width="0.0625" x1="15" y1="0" x2="8" y2="7.75"></line>
<line opacity="0.833333" stroke="hsl(-60, 100%, 50%)" stroke-width="0.0625" x1="15" y1="0" x2="8" y2="8"></line>
<line opacity="0.84375" stroke="hsl(-67.5, 100%, 50%)" stroke-width="0.0625" x1="15" y1="0" x2="8" y2="8.25"></line>
<line opacity="0.854167" stroke="hsl(-75, 100%, 50%)" stroke-width="0.0625" x1="15" y1="0" x2="8" y2="8.5"></line>
<line opacity="0.864583" stroke="hsl(-82.5, 100%, 50%)" stroke-width="0.0625" x1="15" y1="0" x2="8" y2="8.75"></line>
<line opacity="0.875" stroke="hsl(-90, 100%, 50%)" stroke-width="0.0625" x1="15" y1="0" x2="8" y2="9"></line>
<line opacity="0.885417" stroke="hsl(-97.5, 100%, 50%)" stroke-width="0.0625" x1="15" y1="0" x2="8" y2="9.25"></line>
<line opacity="0.895833" stroke="hsl(-105, 100%, 50%)" stroke-width="0.0625" x1="15" y1="0" x2="8" y2="9.5"></line>
<line opacity="0.90625" stroke="hsl(-112.5, 100%, 50%)" stroke-width="0.0625" x1="15" y1="0" x2="8" y2="9.75"></line>
<line opacity="0.916667" stroke="hsl(-120, 100%, 50%)" stroke-width="0.0625" x1="15" y1="0" x2="8" y2="10"></line>
<line opacity="0.927083" stroke="hsl(-127.5, 100%, 50%)" stroke-width="0.0625" x1="15" y1="0" x2="8" y2="10.25"></line>
<line opacity="0.9375" stroke="hsl(-135, 100%, 50%)" stroke-width="0.0625" x1="15" y1="0" x2="8" y2="10.5"></line>
<line opacity="0.947917" stroke="hsl(-142.5, 100%, 50%)" stroke-width="0.0625" x1="15" y1="0" x2="8" y2="10.75"></line>
<line opacity="0.958333" stroke="hsl(-150, 100%, 50%)" stroke-width="0.0625" x1="15" y1="0" x2="8" y2="11"></line>
<line opacity="0.96875" stroke="hsl(-157.5, 100%, 50%)" stroke-width="0.0625" x1="15" y1="0" x2="8" y2="11.25"></line>
<line opacity="0.979167" stroke="hsl(-165, 100%, 50%)" stroke-width="0.0625" x1="15" y1="0" x2="8" y2="11.5"></line>
<line opacity="0.989583" stroke="hsl(-172.5, 100%, 50%)" stroke-width="0.0625" x1="15" y1="0" x2="8" y2="11.75"></line>
<line opacity="1" stroke="hsl(-180, 100%, 50%)" stroke-width="0.0625" x1="15" y1="0" x2="8" y2="12"></line>

</svg>